<?xml version="1.0" encoding="UTF-8"?>
<svg version="1.1" viewBox="0 0 1600 1600" width="1280" height="1280" xmlns="http://www.w3.org/2000/svg">
<path transform="translate(517,601)" d="m0 0c3.29 2.51 6.09 5.43 8.94 8.44 0.78 0.79 1.56 1.58 2.36 2.39 5.7 5.86 5.7 5.86 5.7 8.17 0.99 0.33 1.98 0.66 3 1v2c0.59 0.27 1.17 0.53 1.78 0.81 3.78 2.03 6.67 5.08 9.78 8 1.01 0.93 1.01 0.93 2.04 1.87 4.74 4.43 8.91 8.52 9.4 15.3-1.21 4.82-3.15 9.39-5 14-0.27 0.68-0.54 1.36-0.82 2.07-3.42 8.6-7.01 15.9-13.2 22.9-0.52 0.74-1.04 1.47-1.58 2.23-0.47 0.59-0.94 1.17-1.42 1.77h-2v2c-1.49 1.47-1.49 1.47-3.54 3.17-4.16 3.54-8.04 7.28-11.9 11.2-0.7 0.71-1.41 1.41-2.13 2.14-2.34 2.33-4.67 4.67-7 7.01-1.68 1.69-3.37 3.37-5.05 5.06-3.61 3.61-7.22 7.23-10.8 10.8-5.22 5.24-10.5 10.5-15.7 15.7-8.5 8.51-17 17-25.5 25.5l-1.54 1.54c-3.6 3.61-7.21 7.22-10.8 10.8-4.12 4.12-8.23 8.25-12.4 12.4-0.51 0.51-1.01 1.02-1.54 1.54-8.47 8.48-16.9 17-25.4 25.4-5.68 5.69-11.4 11.4-17 17.1-3.54 3.55-7.07 7.09-10.6 10.6-1.64 1.63-3.27 3.27-4.91 4.91-2.23 2.24-4.47 4.49-6.71 6.73-0.64 0.64-1.28 1.28-1.94 1.95-3.78 3.77-7.68 7.34-11.7 10.8-2.56 2.23-4.95 4.59-7.34 6.99-0.87 0.86-1.74 1.73-2.63 2.62-2.04 2.09-3.95 4.26-5.85 6.48-5.28 6.09-11.1 11.7-16.8 17.3-2.27 2.24-4.53 4.49-6.8 6.74-0.52 0.51-1.04 1.02-1.57 1.55-2.72 2.65-2.72 2.65-4.75 5.83h-2v2h-2c-0.26 0.6-0.52 1.19-0.79 1.8-1.3 2.36-2.53 3.6-4.59 5.32-0.72 0.61-1.44 1.22-2.18 1.84-0.8 0.67-1.61 1.35-2.44 2.04-0.86 0.76-1.71 1.51-2.6 2.29-12.4 10.8-26.5 18.9-40.6 27.1-4.72 2.76-9.38 5.56-14 8.57-5.66 3.67-11.7 6.46-18 8.83-2.11 0.77-2.11 0.77-4.79 2.17-0.72 2.04-0.72 2.04-1 4h2.46c19.8-0.02 39.5-0.04 59.3-0.05 9.56-0.01 19.1-0.01 28.7-0.03 8.33-0.01 16.6-0.01 25-0.01 4.41-0.01 8.82-0.01 13.2-0.02h12.4c1.52 0 3.05-0.01 4.58-0.01h6.22 3.53c2.59 0.12 2.59 0.12 3.59 1.12 0.07 2.35 0.08 4.71 0.06 7.06-0.01 1.29-0.02 2.58-0.02 3.91-0.02 1.5-0.02 1.5-0.04 3.03-29.2 0.02-58.3 0.04-87.5 0.05h-10.3c-0.69 0.01-1.37 0.01-2.08 0.01-11.1 0-22.2 0.01-33.3 0.02-11.4 0.01-22.8 0.01-34.1 0.01-6.39 0.01-12.8 0.01-19.2 0.02h-18c-2.21 0-4.43 0.01-6.64 0.01h-9.03c-1.33 0-1.33 0-2.69 0.01-6.01-0.02-6.01-0.02-7.12-1.13-0.68-3.93-0.75-7.53 1.09-11.1 3.06-4.15 6.66-7.78 10.4-11.3 1.74-1.67 1.74-1.67 3.52-4.54h2l1-3c1.6-1.65 1.6-1.65 3.62-3.38 1.08-0.93 1.08-0.93 2.18-1.89 1.95-1.54 3.85-2.66 6.01-3.85 3.53-2.42 4-5.04 4.88-9.13 0.17-1.06 0.34-2.11 0.51-3.2 1.98-8.77 6.86-16.5 11.2-24.3 0.92-1.64 0.92-1.64 1.85-3.3 4.54-8.03 9.3-15.9 14.2-23.7 3.16-5.02 6.01-10.1 8.67-15.4 3.18-6.19 6.89-10.8 11.7-15.7 2.24-2.18 2.24-2.18 4.1-5.17h2l2-4h2l1-3c1.39-1.37 1.39-1.37 3.25-2.88 4.6-3.88 8.8-8.11 13-12.4 2.49-2.53 4.95-4.87 7.71-7.11 2.37-1.92 4.32-3.99 6.29-6.32 3.44-3.97 7.04-7.7 10.8-11.4 0.66-0.66 1.32-1.32 2.01-2 1.42-1.42 2.85-2.84 4.27-4.26 2.27-2.25 4.53-4.51 6.79-6.76 5.61-5.6 11.2-11.2 16.8-16.8 4.76-4.74 9.51-9.48 14.3-14.2l6.66-6.63c1.37-1.37 2.74-2.74 4.11-4.1 0.92-0.91 0.92-0.91 1.85-1.83 2.96-2.97 5.81-5.99 8.54-9.16 4.01-4.64 8.31-8.95 12.6-13.3 1.31-1.32 1.31-1.32 2.66-2.66 2.38-2.38 4.76-4.77 7.14-7.15 2.51-2.5 5.02-5.01 7.52-7.52 4.21-4.21 8.42-8.41 12.6-12.6 4.85-4.84 9.69-9.69 14.5-14.5 4.18-4.18 8.36-8.37 12.5-12.5l7.47-7.47c2.77-2.78 5.55-5.55 8.33-8.33 0.81-0.81 1.62-1.63 2.46-2.46 4.19-4.18 8.45-8.2 12.9-12 2.81-2.43 5.53-4.97 8.25-7.51 3.41-3.18 6.85-6.31 10.4-9.36 4.34-3.78 8.43-7.77 12.5-11.8 0.71-0.7 1.42-1.39 2.15-2.11l2.06-2.06c0.6-0.6 1.21-1.21 1.84-1.83 1.65-1.74 1.65-1.74 2.57-3.91 1.81-3.45 5.51-4.59 9-5.9 2.01-0.51 4.04-0.98 6.06-1.44 5.44-1.24 8.63-3.08 12.9-6.56 3.71-1.24 6.38-1.41 10 0zm-38.8 17c-0.39 0.66-0.79 1.32-1.19 2l1 1c-0.05 0.92-0.1 1.84-0.15 2.79 0.41 8.61 13.2 17 19.2 22.7 5.8 5.41 11.5 10.9 17.1 16.5 0.79 0.78 1.57 1.55 2.37 2.35 4.2 4.21 8.17 8.49 11.9 13.1 1.88 1.79 3.04 2.3 5.61 2.53 2.51-1.72 2.51-1.72 4.81-4.19 0.81-0.8 1.62-1.59 2.46-2.42 1.93-2.17 1.93-2.17 1.71-4.39-4.69-9.52-13.8-17.6-22-24-3.12-2.44-5.83-4.84-8.38-7.88-6.99-8.31-18.8-21.1-30.3-22.5-2.42 0.13-2.42 0.13-4.04 2.34zm32.8 7c0.56 4.22 3.08 7.13 5.62 10.4 0.46 0.58 0.92 1.16 1.39 1.76 3.33 4.17 6.59 7.8 11 10.9 0.52 0.36 1.03 0.72 1.56 1.09 1.83 1.26 3.66 2.5 5.5 3.72 0.59 0.4 1.18 0.8 1.79 1.21 3.68 2.37 6.75 3.79 11.2 3.98l2-2c0-5.72-1.74-8.24-5.46-12.2-1.57-1.84-2.44-3.48-3.42-5.69-2.64-5.67-6.88-11.4-12.5-14.4-3-0.87-5.56-1.03-8.68-1.01-1.54-0.01-1.54-0.01-3.1-0.02-2.8 0.27-4.46 0.83-6.84 2.27zm-49.3 20.2c-1.68 1.69-3.36 3.38-5.04 5.08-3.48 3.5-7.04 6.81-10.8 10-2.23 1.97-4.3 4.05-6.39 6.17-2.63 2.66-5.27 5.21-8.12 7.62-4.22 3.62-8.14 7.52-12.1 11.4-0.64 0.64-1.28 1.28-1.94 1.93-2.76 2.77-5.37 5.5-7.83 8.54-1.93 2.26-3.61 3.94-5.86 5.82-6.35 5.5-12.2 11.5-18.1 17.5-1.3 1.29-2.59 2.59-3.89 3.88-2.7 2.7-5.4 5.4-8.1 8.11-3.44 3.44-6.88 6.89-10.3 10.3-2.67 2.66-5.34 5.33-8.01 8l-3.81 3.81c-8.79 8.76-8.79 8.76-17.1 18-1.36 1.57-2.79 3-4.29 4.44-2.29 1.87-2.29 1.87-2.06 4.12h-2c-1.33 1.32-1.33 1.32-2.75 3.13-3.43 4.04-7.08 7.77-10.8 11.5-0.59 0.58-1.19 1.17-1.8 1.78-2.48 2.45-4.97 4.91-7.46 7.35l-5.49 5.43c-0.57 0.55-1.14 1.11-1.72 1.68-1.35 1.34-2.65 2.74-3.94 4.14v2c-0.99 0.33-1.98 0.66-3 1-1.51 1.49-1.51 1.49-3 3.37-4.25 5-8.84 9.62-13.5 14.2-1.45 1.44-2.89 2.89-4.33 4.34-3.9 3.9-7.8 7.79-12 11.4-5.66 4.86-10.9 10.2-16.1 15.5-1.85 1.84-3.7 3.68-5.56 5.51-1.18 1.19-2.37 2.37-3.55 3.55-0.55 0.54-1.1 1.09-1.67 1.65-2.94 2.95-5.28 5.82-7.25 9.5 1.58 1.46 3.16 2.92 4.75 4.38 0.88 0.81 1.76 1.62 2.67 2.46 2.18 1.82 3.99 3.06 6.58 4.16v2c1.83 2.17 1.83 2.17 4 4h2v2h2c0.25 0.57 0.5 1.14 0.75 1.73 1.44 2.62 3.14 4.47 5.19 6.65 4.8 5.22 9.14 10.7 13.5 16.3 2.45 3.17 5 6.24 7.58 9.3 5.21-0.4 8.01-3.11 11.8-6.44 0.93-0.81 0.93-0.81 1.88-1.64 4.34-3.85 8.31-7.91 12.1-12.3 2.65-3.06 5.39-6.03 8.15-9 2.99-3.23 5.98-6.46 8.94-9.73 16.3-18 16.3-18 22.2-21.9v-2c0.6-0.27 1.2-0.55 1.81-0.83 2.12-1.13 3.48-2.22 5.16-3.91 0.56-0.56 1.12-1.11 1.69-1.69 0.6-0.6 1.2-1.21 1.82-1.84 0.64-0.64 1.28-1.28 1.94-1.95 2.12-2.12 4.23-4.25 6.34-6.38 1.47-1.47 2.94-2.95 4.41-4.42 3.86-3.88 7.72-7.77 11.6-11.6 6.19-6.23 12.4-12.4 18.6-18.7 2.17-2.18 4.33-4.36 6.49-6.54 1.32-1.32 2.65-2.65 3.97-3.98 0.6-0.61 1.21-1.22 1.83-1.85 4.16-4.18 4.16-4.18 6.39-5.29v-2c0.53-0.21 1.06-0.41 1.61-0.62 3.4-1.96 5.9-4.6 8.64-7.38 0.83-0.82 0.83-0.82 1.68-1.66 3.06-2.67 3.06-2.67 4.07-6.34h2c1.52-1.5 1.52-1.5 3.1-3.46 3.9-4.59 8.07-8.85 12.3-13.1 0.71-0.72 1.42-1.43 2.16-2.17l4.04-4.04c1.95-1.84 3.93-3.59 5.96-5.33 5.23-4.56 10.1-9.46 15-14.4 1-1.01 2-2.01 3.01-3.01 2.09-2.09 4.18-4.18 6.26-6.27 2.66-2.66 5.32-5.32 7.98-7.97 2.07-2.07 4.13-4.14 6.2-6.2l2.94-2.94c6.68-6.67 13-13.5 19-20.8 2.56-3.01 5.35-5.52 8.39-8.02 1.99-1.68 3.81-3.49 5.61-5.36l-2-4h-2c-0.24-0.56-0.47-1.13-0.72-1.71-1.58-2.82-3.51-4.73-5.82-6.99-0.91-0.9-1.82-1.8-2.76-2.73-0.96-0.94-1.92-1.88-2.89-2.82-5.57-5.47-11.1-10.9-16.1-16.8-3.01-3.42-6.29-6.58-9.55-9.78-1.33-1.3-2.66-2.61-3.99-3.92-0.58-0.57-1.15-1.14-1.75-1.72-1.38-1.48-1.38-1.48-2.38-3.48-6.37 0-11.9 7.86-16.3 12.2zm-245 251c-2.15 2.34-2.15 2.34-4.19 5.31-0.71 0.99-1.43 1.97-2.17 2.99-1.9 2.6-1.9 2.6-1.64 5.7 1.52 1.67 1.52 1.67 3.55 3.25 4.07 3.41 7.86 7 11.6 10.8 0.64 0.64 1.28 1.28 1.95 1.94 1.34 1.34 2.68 2.68 4.03 4.02 2.04 2.04 4.09 4.07 6.14 6.1l3.94 3.94c0.61 0.6 1.21 1.2 1.83 1.81 3.79 3.81 6.92 7.74 9.94 12.2 3.21-0.74 5.7-1.8 8.56-3.44 0.77-0.43 1.53-0.86 2.32-1.31 1.74-1.03 3.44-2.13 5.12-3.25 0.23-2.29 0.23-2.29-2.19-4.28-0.93-0.9-1.85-1.8-2.81-2.72-1.67-1.83-3.34-3.66-5-5.5-5.75-6.29-11.7-12.3-17.8-18.4-0.89-0.89-1.77-1.78-2.69-2.7-4.53-4.51-9.11-8.9-14-13-1.24-1.07-2.42-2.21-3.58-3.37h-3zm-11 15c-2.14 3.05-4.05 6.26-6 9.44-0.58 0.95-1.17 1.89-1.77 2.87-3.62 5.92-7.13 11.9-10.4 18-0.54 0.99-0.54 0.99-1.09 2.01-2.35 4.47-3.65 8.74-4.72 13.7 0.76 0.68 1.52 1.36 2.31 2.05 15.1 13.6 15.1 13.6 20.7 22 12.4-3.42 23.1-10.9 33.8-17.9 3.36-2.15 6.77-4.13 10.2-6.08-2.91-2.91-5.82-5.81-8.74-8.71-1.38-1.37-2.76-2.73-4.14-4.1-0.68-0.68-1.36-1.35-2.06-2.04-4.02-4-7.83-8.11-11.5-12.4-1.77-2.01-3.64-3.85-5.59-5.68-3.55-3.47-6.2-7.17-8.81-11.4-0.37-0.56-0.75-1.12-1.13-1.69h-1zm-31.3 57.4c-3.81 3.65-7.25 7.58-10.7 11.6-0.75 0.88-1.51 1.76-2.29 2.66-3.64 4.39-6.11 7.79-7.71 13.3 17.7 2.2 17.7 2.2 33.4-4.31 1.21-1.21 2.4-2.44 3.56-3.69l2.56-2.56c1.63-2.37 1.63-2.37 1.69-5.19-2.13-5.53-6.05-10.3-11.1-13.4-3.74-1.39-6.37-0.88-9.46 1.57z" fill="#040404"/>
<path transform="translate(1079 796)" d="m0 0c0.78 0.17 1.56 0.34 2.37 0.52 2.19 0.67 2.19 0.67 5.19 2.67-0.47 7.3-2.84 13.3-5.62 20.1-0.68 1.67-0.68 1.67-1.38 3.37-3.15 7.68-6.52 15.2-10.1 22.7-10.8 22-10.8 22-13.6 46-0.08 0.63-0.17 1.25-0.26 1.89-4.18 2.78-6.14 1.79-11 1-1-3.47-1.98-6.93-2.9-10.4-4.76-17.3-11.5-34.2-19.2-50.5-0.9-2.12-0.9-2.12-0.9-4.12-8.17 7.2-12.1 17.1-16 27-0.63 1.58-1.27 3.17-1.91 4.75-3.42 8.48-6.79 17-9.98 25.5-1.22 3-2.63 5.85-4.11 8.73h-3c-0.2-1.21-0.39-2.41-0.6-3.65-3.25-17.5-10.2-33.1-17.4-49.2-1.25-2.78-2.48-5.56-3.71-8.35-6.04-13.8-6.04-13.8-12.6-27.4-1.64-3.31-1.64-3.31-1.64-5.31 7.26-0.33 14.5-0.66 22-1 0.08 2.16 0.17 4.33 0.25 6.56 0.53 9.44 2.7 18.3 6.23 27.1 2.44 6.39 3.39 13.2 4.63 19.9 0.2 1.04 0.4 2.08 0.61 3.15 0.18 0.93 0.35 1.87 0.53 2.84 0.81 2.6 1.68 3.71 3.75 5.42 3.63-0.94 4.84-1.76 6.96-4.92 0.63-1.23 1.25-2.46 1.86-3.71 0.33-0.66 0.67-1.33 1.02-2.01 0.71-1.41 1.41-2.82 2.11-4.23 1.02-2.06 2.05-4.11 3.1-6.16 1.35-2.65 2.68-5.32 3.99-8 1.28-2.62 2.61-5.19 3.99-7.75 4.76-9.12 6.07-17 5.97-27.2 2.35 0.19 2.35 0.19 5 1 1.34 2.05 1.34 2.05 2.38 4.87 0.41 1.1 0.83 2.2 1.26 3.33 0.21 0.61 0.43 1.22 0.66 1.85 0.73 2.04 1.49 4.06 2.26 6.09 2.66 7.12 5.24 14.3 7.75 21.4 0.59 1.67 0.59 1.67 1.2 3.39 0.77 2.19 1.54 4.39 2.3 6.59 2.96 9.14 2.96 9.14 9.44 15.8 0.58 0.21 1.16 0.42 1.75 0.63v-2h2c0.17-0.59 0.34-1.18 0.52-1.78 1.67-5.66 3.48-11.2 5.39-16.8 7.08-20 7.08-20 8.98-40.9 0.18-3.9 1.51-5.67 4.11-8.5 2.58-1.29 3.66-0.82 6.44-0.19z" fill="#040404"/>
<path transform="translate(638,712)" d="m0 0v1.96c-0.03 16-0.04 31.9-0.05 47.9-0.01 7.72-0.01 15.4-0.03 23.2-0.01 8.95-0.02 17.9-0.02 26.8v2.22c0 27 0.38 53.9 1.1 80.9-2.63 0.03-5.25 0.05-7.88 0.06-0.74 0.01-1.49 0.02-2.26 0.03-5.63 0.02-5.63 0.02-7.86-1.09 0-0.83 0.01-1.66 0.01-2.51 0.06-20.2 0.11-40.3 0.15-60.5 0.01-9.76 0.03-19.5 0.07-29.3 0.03-8.5 0.05-17 0.05-25.5 0.01-4.5 0.02-9 0.04-13.5 0.02-4.24 0.02-8.47 0.02-12.7 0-1.55 0.01-3.11 0.02-4.66 0.01-2.13 0.01-4.25 0-6.38 0-1.19 0.01-2.37 0.01-3.6-0.44-4.03-1.69-6.72-3.37-10.4 0-3.87 1.59-6.78 4.13-9.71 4.38-3.03 10.6-3.29 15.9-3.29z" fill="#040404"/>
<path transform="translate(724 807)" d="m0 0c7.98 8.46 9.03 20.3 9.13 31.4 0.02 0.97 0.04 1.94 0.05 2.95 0.06 3.07 0.1 6.15 0.14 9.23s0.09 6.17 0.14 9.26c0.03 1.91 0.06 3.83 0.08 5.74 0.01 0.87 0.03 1.74 0.04 2.64 0.01 0.76 0.02 1.52 0.03 2.3 0.17 2.81 0.68 5.59 1.14 8.37l15 3c-1.91 4.79-3.35 7.44-7 11-3.61 1.35-5.81 1.41-9.46 0.14-5.51-2.55-9.66-5.45-13.5-10.1v-3h-2c-0.35 0.86-0.35 0.86-0.71 1.75-3.42 5.98-10.8 10.8-17.3 12.8-6.65 1.33-12 0.75-18-2.6-5.68-5.03-10.5-10.3-11.3-18-0.1-7.93 0.32-13.6 5.82-19.6 6.34-5.45 14.7-7.78 22.5-10.4 1.02-0.34 2.04-0.69 3.09-1.04 4.15-1.33 7.52-2.1 11.9-1.96-1.4 3.5-2.74 4.73-6.1 6.37l-2.48 1.24c-0.86 0.42-1.72 0.84-2.6 1.26-10.4 4.78-10.4 4.78-17.8 13.1-0.73 8.46 0.44 13.7 4.75 20.9 2.16 2.35 2.16 2.35 5.5 2.56 8.16-1.09 15-4.43 20.6-10.6 1.85-3.2 2.25-6.38 2.44-10 0.04-0.78 0.08-1.56 0.13-2.36 0.06-1.23 0.06-1.23 0.12-2.49 0.06-1.27 0.06-1.27 0.12-2.57 0.32-6.84 0.51-13.6 0.31-20.5-0.02-1.05-0.05-2.1-0.08-3.18-0.38-7.15-1.56-13-6.36-18.5-4.02-3.49-9.69-2.67-14.7-2.64-5.89 0.44-11.5 1.82-16.9 4.29-1.94 2.91-2.27 3.83-2.56 7.12-0.44 3.88-0.44 3.88-1.44 4.88-1.66 0.04-3.33 0.04-5 0-1.67-3.35-0.09-6.61 1-10 2.71-7.46 7.4-12.5 14.4-16.3 12.3-5.69 26.1-5.41 36.9 3.43z" fill="#040404"/>
<path transform="translate(853,800)" d="m0 0c7.59 0.33 15.2 0.66 23 1 0.33 3.36 0.66 6.72 1 10.2 1.09 9.4 3.38 17.6 7.02 26.3 2.61 6.3 4.39 12.5 5.52 19.2 0.68 3.55 1.31 5.19 3.95 7.73 2.38 1.58 2.38 1.58 4.51 2.6 0.11-0.56 0.23-1.12 0.34-1.7 0.75-2.61 1.86-4.67 3.16-7.05 9.06-17.8 16.9-37.1 14.5-57.2h19c-1.33 3.31-2.67 6.51-4.17 9.74-5.87 12.6-5.87 12.6-11 25.6-2.2 6.14-4.86 11.9-7.9 17.7-5.13 9.81-8.81 20.1-12.4 30.6-4.16 12.2-8.89 23.8-14.5 35.3-3.35 7.05-6.15 14.1-8.36 21.6-2.03 6.79-2.03 6.79-4.79 9.43-1.98 0.43-1.98 0.43-4.19 0.31-0.78-0.03-1.57-0.07-2.38-0.1-3.5-0.3-6.95-0.7-10.4-1.21 0-4.16 2.23-6.37 4.62-9.56 0.94-1.28 1.87-2.56 2.79-3.85 0.68-0.93 0.68-0.93 1.37-1.88 10.1-14.2 25-38.9 23-56.9-1.27-7.02-3.85-13-6.94-19.4-1-2.15-2.01-4.29-3.01-6.43-0.49-1.02-0.97-2.05-1.47-3.11-1.66-3.55-3.22-7.12-4.77-10.7-3.17-7.34-6.52-14.6-9.87-21.9-0.53-1.14-1.06-2.29-1.6-3.47-1.99-4.28-3.98-8.55-6.09-12.8z" fill="#040404"/>
<path transform="translate(1364 802)" d="m0 0c8.46 4.62 13.7 10.9 18 19.4 0.51 1 0.51 1 1.04 2.03 2.44 5.55 2.26 11 1.96 17-3.61 0.91-6.09 0.98-9.7 0.09-5.08-1.12-9.91-1.43-15.1-1.51-0.89-0.02-1.78-0.04-2.69-0.06-2.8-0.05-5.59-0.1-8.39-0.15-1.89-0.04-3.79-0.07-5.68-0.11-9.22-0.2-9.22-0.2-18.4-0.26 0.4 12.4 2.22 22.6 10.5 32.2 1.49 1.84 1.49 1.84 2.49 4.84 1.83 1.12 1.83 1.12 4 2 0.62 0.35 1.24 0.7 1.88 1.06 7.52 3.32 17.4 2.94 25.1 0.12 4.97-2.88 7.62-8.15 10-13.2 4.22 1.5 5.94 4.12 8 8 0.18 3.59-1.3 5.64-3.44 8.37-6.95 7.64-16 13.5-26.4 14.1-1.7 0.02-3.41 0.02-5.12 0.01-0.85 0.01-1.7 0.03-2.58 0.06-9.18-0.01-15.5-3.82-22.2-9.97-11.4-12.9-15.9-30.1-15.1-47 1.99-13.7 9.32-24.6 19.8-33.5 9.13-5.67 21.8-7.63 32-3.44zm-32.5 15.4c-3.8 5.13-6.15 9.52-6.54 16.1 1.93 1.93 5.54 1.27 8.18 1.35 1.1 0.03 1.1 0.03 2.21 0.07 1.56 0.05 3.11 0.09 4.66 0.14 2.35 0.06 4.69 0.14 7.03 0.22 7.73 0.24 15.2 0.25 22.9-0.78 1.46-5.21 0.05-9.08-2-14-3.39-5.69-7.56-10.9-14-13-9.95-1.2-16.3 2.28-22.5 9.92z" fill="#040404"/>
<path transform="translate(768,801)" d="m0 0h64c-2.26 10.2-2.26 10.2-5.25 15.2-0.34 0.57-0.68 1.14-1.03 1.73-5.68 9.5-11.7 18.8-17.7 28.1-1.03 1.61-2.07 3.23-3.1 4.84-0.95 1.47-1.89 2.94-2.84 4.41-0.44 0.69-0.89 1.38-1.35 2.1-2.97 4.58-6.07 9.03-9.37 13.4-1.84 2.89-1.84 2.89-3.34 9.27h37l2-5c2.62-0.81 2.62-0.81 5-1 0.85 3.28 1.06 6.32 1.03 9.69 0 0.81-0.01 1.62-0.01 2.45-0.01 0.92-0.01 0.92-0.02 1.86-46.8 1.19-46.8 1.19-65 1 0.57-3.57 1.46-6.18 3.34-9.27 0.48-0.79 0.96-1.59 1.45-2.42 0.79-1.27 0.79-1.27 1.59-2.56 0.8-1.33 0.8-1.33 1.63-2.69 4.28-6.99 8.7-13.9 13.2-20.8 12.4-17.4 12.4-17.4 21.8-36.3h-36l-1 16h-6c-1.86-1.86-1.13-4.48-1.14-6.95 0.01-0.8 0.01-1.6 0.02-2.43-0.01-0.76-0.01-1.52-0.02-2.3 0.01-6.21 0.57-12.1 1.14-18.3z" fill="#040404"/>
<path transform="translate(1260,777)" d="m0 0 2 1 2 102c13.5 1.29 13.5 1.29 24.8-4.42 0.52-0.46 1.03-0.92 1.57-1.39 2.62-2.19 2.62-2.19 5-2 0.53 0.27 1.07 0.53 1.62 0.81 0 6.29-2.4 9.41-6.67 13.9-6.99 6.27-13.6 8.23-22.8 8.34-1.31 0.03-2.62 0.05-3.97 0.08-3.69-0.35-5.01-0.68-7.53-3.33-1.12-1.95-1.12-1.95-2-4.12-0.29-0.71-0.58-1.41-0.88-2.14-0.37-0.9-0.74-1.81-1.12-2.74-0.32-0.58-0.65-1.17-0.98-1.77-3.55-6.82-3.47-12.9-3.23-20.5 0.03-2.56 0.07-5.11 0.1-7.67 0.07-3.33 0.14-6.66 0.22-9.99 0.11-4.55 0.18-9.1 0.24-13.6 0.04-1.21 0.07-2.41 0.11-3.65 0.02-1.11 0.03-2.22 0.04-3.37 0.03-0.98 0.05-1.96 0.07-2.97-0.33-2.71-0.33-2.71-3.04-4.09-0.83-0.45-1.67-0.91-2.53-1.37-1.19-3.95-1.3-6.18 0.12-10.1 1.88-2.94 1.88-2.94 4.32-5.63 3.02-3.43 4.19-7.33 5.57-11.6 1.61-4.36 3.09-7.08 6.99-9.68z" fill="#040404"/>
<path transform="translate(1461,800)" d="m0 0c0.05 2.79 0.09 5.58 0.12 8.38 0.02 0.79 0.04 1.58 0.06 2.4 0.01 2.07-0.08 4.15-0.18 6.22l-2 2c-0.83-0.48-0.83-0.48-1.67-0.98-4.88-2.14-10.6-1.75-15.7-0.37-4.56 1.97-6.04 3.72-7.98 8.42-0.97 2.98-0.99 5.75-0.97 8.88v1.98c0 2.14 0.02 4.27 0.05 6.41 0 1.49 0.01 2.98 0.01 4.48 0.01 3.9 0.04 7.81 0.07 11.7 0.03 3.99 0.05 7.99 0.06 12 0.04 7.82 0.09 15.6 0.15 23.5h-18c0.14-2.41 0.29-4.83 0.44-7.31 0.04-0.74 0.08-1.47 0.13-2.23 0.24-3.89 0.55-7.76 0.93-11.6 0.94-10.2 1.1-20.4 1.39-30.6 0.09-2.67 0.22-5.33 0.38-8 0.34-7.71-0.64-12.4-5.06-18.9-1.21-2.37-1.21-2.37-1.19-4.94 1.28-3.19 2.84-4.27 5.67-6.18 1.27-0.89 1.27-0.89 2.57-1.8 2.96-1.57 5.43-2.08 8.74-2.45 0.68 1.21 0.68 1.21 1.38 2.44 1.37 2.65 1.37 2.65 3.62 3.56 8.2 0.71 14.2 0.12 20.7-5.19 2.31-1.81 2.31-1.81 6.31-1.81z" fill="#040404"/>
<path transform="translate(1208,800)" d="m0 0v95c-17 0-17 0-19-1 0.14-1.77 0.29-3.54 0.44-5.31 0.08-0.99 0.16-1.97 0.24-2.99 0.32-2.7 0.32-2.7 1.32-5.7 0.15-1.49 0.25-2.98 0.32-4.48 0.04-0.9 0.08-1.81 0.12-2.74 0.04-0.98 0.08-1.96 0.12-2.97 0.04-1.02 0.09-2.04 0.13-3.1 0.27-7.19 0.42-14.4 0.43-21.6 0.01-1.46 0.01-1.46 0.01-2.96-0.01-5.35-0.2-10.6-0.57-16-0.1-1.69-0.1-1.69-0.21-3.42-0.15-2.16-0.32-4.32-0.52-6.48-0.34-5.08-0.37-8.36 2.91-12.4 4.34-4.54 7.94-3.85 14.3-3.85z" fill="#040404"/>
<path transform="translate(1127,799)" d="m0 0c2.19 2.19 1.3 8.07 1.34 11.2 0.05 2.41 0.05 2.41 0.66 5.81 1.9 1.6 1.9 1.6 4 2-0.45 6.82-1.08 13.6-2.06 20.3-1.13 8.58-1.16 17.2-1.19 25.8-0.01 1.01-0.01 1.01-0.02 2.04-0.06 9.81 0.75 19.2 2.27 28.8-2.96 0.03-5.92 0.05-8.88 0.06-0.84 0.01-1.68 0.02-2.55 0.03-0.8 0-1.61 0-2.44 0.01-0.74 0-1.48 0.01-2.25 0.01-1.88-0.11-1.88-0.11-3.88-1.11l1-3c2.21-18.4 2.08-37.2 2.25-55.6 0.03-1.79 0.03-1.79 0.06-3.61 0.03-6.37-0.5-11.7-2.76-17.7-0.64-2.47-0.43-3.74 0.45-6.11 1.56-2.11 1.56-2.11 3.44-4.19 0.61-0.69 1.23-1.39 1.87-2.1 2.81-2.84 4.79-2.91 8.69-2.71z" fill="#040404"/>
<path transform="translate(452,671)" d="m0 0h3c2.25 4.38 2.15 7.24 1 12-1.74 2.34-3.34 4.22-5.38 6.25-0.53 0.55-1.06 1.11-1.61 1.68-1.65 1.71-3.33 3.39-5.01 5.07-0.52 0.52-1.04 1.05-1.58 1.58-2.33 2.34-4.68 4.67-7.04 6.98-2.38 2.35-2.38 2.35-4.19 4.82-1.84 2.2-3.57 3.88-5.74 5.74-5.49 4.69-10.5 9.87-15.6 15-5.45 5.53-10.8 11-16.9 15.9-1.69 1.98-3.36 3.98-5 6l-5 5c-6.13 6.15-10.8 12.5-14.9 20.1-2.6 4.68-2.6 4.68-5.19 5.92-2.94-0.02-4.57-1.3-6.9-3.01-2-3-2-3-1.78-4.96 5.16-13.5 21-25.4 31-35.4 2.37-2.37 4.74-4.74 7.1-7.11 1.53-1.53 3.06-3.06 4.59-4.58 0.69-0.7 1.39-1.4 2.11-2.12 3.96-3.94 8.02-7.7 12.3-11.3 1.62-1.41 3.16-2.86 4.69-4.37 1.3-1.25 1.3-1.25 2.62-2.54 0.87-0.85 1.74-1.7 2.63-2.58 3.33-2.41 5.76-2.77 9.81-3.04-0.42-1.27-0.42-1.27-0.84-2.57-0.2-4.3 0.86-5.38 3.61-8.48 0.55-0.58 1.1-1.16 1.67-1.76 0.55-0.61 1.1-1.22 1.66-1.84 1.11-1.22 2.22-2.44 3.34-3.65 2.12-2.31 4.14-4.69 6.18-7.08 1.86-2.14 1.86-2.14 3.38-3.62h2v-2z" fill="#040404"/>
<path transform="translate(393 992)" d="m0 0c0.99 0 1.99 0 3.01 0.01h3.4c1.82 0 1.82 0 3.69 0.01 1.86 0 1.86 0 3.76 0.01 3.31 0 6.62 0.01 9.92 0.02 3.37 0.01 6.74 0.02 10.1 0.02 6.62 0.01 13.2 0.03 19.8 0.05v15h-56l-1-14c1-1 1-1 3.25-1.12z" fill="#040404"/>
<path transform="translate(1207,745)" d="m0 0v29h-14c-1-1-1-1-1.13-3.81 0.04-19.7 0.04-19.7 2.42-22.9 2-1.49 3.24-1.75 5.71-1.96 0.68-0.06 1.36-0.13 2.06-0.2 1.65-0.09 3.29-0.11 4.94-0.11z" fill="#040404"/>
<path transform="translate(1167,800)" d="m0 0v22c-6-1-6-1-7.43-2.46-2.5-2.45-5.38-2.58-8.76-3.23-1.27-0.25-2.54-0.5-3.85-0.76-0.98-0.18-1.95-0.36-2.96-0.55 0.55-4.07 1.75-6.51 4.25-9.75 0.58-0.78 1.17-1.56 1.77-2.36 4.67-4.45 10.7-2.89 17-2.89z" fill="#040404"/>
<path transform="translate(1271,802)" d="m0 0c3.48-0.03 6.96-0.05 10.4-0.06 1.49-0.02 1.49-0.02 3.01-0.03 0.94 0 1.89 0 2.86-0.01 1.31-0.01 1.31-0.01 2.65-0.01 2.04 0.11 2.04 0.11 3.04 1.11 0.07 1.85 0.08 3.71 0.06 5.56-0.01 1.01-0.02 2.03-0.02 3.07-0.02 0.78-0.03 1.56-0.04 2.37-2.94 1.47-5.15 0.8-8.38 0.38-1.14-0.14-2.28-0.28-3.46-0.42-3.85-1.17-5.05-2.59-7.16-5.96v-2c-0.99-0.33-1.98-0.66-3-1v-3z" fill="#040404"/>
<path transform="translate(1436,778)" d="m0 0 2 1c-0.74 0.54-1.48 1.07-2.25 1.62-2.89 2.28-2.89 2.28-4.81 5.5-1.89 2.8-2.83 3.77-5.94 4.88 0.58-3.53 1.81-5.17 4.38-7.62 0.6-0.6 1.21-1.19 1.83-1.79 1.79-1.59 1.79-1.59 4.79-3.59z" fill="#040404"/>
</svg>
